<svg xmlns="http://www.w3.org/2000/svg" xmlns:xlink="http://www.w3.org/1999/xlink" version="1.1" x="0px" y="0px" viewBox="0 0 100 125" enable-background="new 0 0 100 100" xml:space="preserve"><path d="M90.925,27.907L74.241,46.013c-0.021,0.021-0.044,0.041-0.067,0.062c-2.786,2.745-6.414,4.116-10.044,4.116  c-2.165,0-4.332-0.488-6.319-1.465l-14.3,14.3l1.052,1.052L18.756,89.885c-0.001,0.001-0.001,0.001-0.001,0.001  c-1.044,1.044-2.372,1.631-3.736,1.762c-0.195,0.019-0.391,0.028-0.588,0.028c-0.097,0-0.195-0.002-0.292-0.007  c-0.586-0.028-1.169-0.14-1.729-0.336c-0.093-0.032-0.186-0.068-0.278-0.105c-0.735-0.299-1.425-0.746-2.022-1.343  c-0.597-0.597-1.044-1.286-1.343-2.022c-0.037-0.091-0.073-0.184-0.105-0.278c-0.196-0.56-0.308-1.142-0.336-1.729  c-0.014-0.293-0.007-0.587,0.021-0.879c0.13-1.363,0.718-2.691,1.762-3.736c0.001-0.001,0.001-0.001,0.001-0.001l25.805-25.805  l1.052,1.052l14.3-14.3c-2.627-5.348-1.721-11.993,2.727-16.442l0.006,0.006L72.096,9.078c0.558-0.558,1.184-0.754,1.725-0.754  c0.535,0,0.988,0.191,1.21,0.413L56.012,27.757l0.002,0.002L75.033,8.74c0.446,0.446,0.768,1.826-0.34,2.935L58.02,29.767  l4.097,4.097l18.092-16.673c0.558-0.558,1.184-0.754,1.725-0.753c0.535,0,0.988,0.191,1.21,0.413L64.125,35.87l0.002,0.002  l19.019-19.019c0.446,0.446,0.768,1.826-0.34,2.935L66.133,37.88l4.103,4.103l18.093-16.672c0.558-0.558,1.184-0.754,1.725-0.753  c0.535,0,0.988,0.191,1.21,0.413L72.244,43.99l0.002,0.002l19.019-19.019C91.711,25.418,92.034,26.798,90.925,27.907z   M61.647,55.437l-1.053,1.053l-2.907-2.907l-6.539,6.539l2.906,2.906l-1.052,1.052l25.806,25.805c2.387,2.387,6.257,2.386,8.644,0  c2.387-2.387,2.386-6.257,0-8.644L61.647,55.437z M36.925,51.799l9.49-9.49l-2.909-2.909L24.914,20.809  c-1.905-1.905-7.346-6.059-9.673-3.957c-0.001,0.001-0.003,0.003-0.003,0.003c-4.066,4.077,1.451,16.193,12.325,27.067  C30.654,47.014,33.846,49.671,36.925,51.799z"/></svg>
