<svg xmlns="http://www.w3.org/2000/svg" xmlns:xlink="http://www.w3.org/1999/xlink" version="1.1" x="0px" y="0px" viewBox="0 0 96 120" style="enable-background:new 0 0 96 96;" xml:space="preserve"><path d="M12,54c3-9,6-9,9-9h9h15h9c3,0,6,0,9,9h3c3.314,0,6,2.686,6,6c0,2.248-1.236,4.206-3.066,5.234  C70.813,66.883,72,69.303,72,72v9c0,1.75-1.138,3.159-3,4.295V93c0,1.657-1.343,3-3,3h-6c-1.657,0-3-1.343-3-3v-4.206  C48.781,90,39.802,90,37.5,90S26.22,89.999,18,88.794V93c0,1.657-1.343,3-3,3H9c-1.657,0-3-1.343-3-3v-7.705  C4.138,84.16,3,82.75,3,81v-9c0-2.697,1.186-5.117,3.066-6.766C4.236,64.206,3,62.248,3,60c0-3.314,2.686-6,6-6H12L12,54z M85.5,39  C91.299,39,96,43.701,96,49.5C96,57,93,66,90,66h-3v27h4.5c0.828,0,1.5,0.672,1.5,1.5S92.328,96,91.5,96H87h-3h-4.5  c-0.828,0-1.5-0.672-1.5-1.5s0.672-1.5,1.5-1.5H84V66h-3c-3,0-6-9-6-16.5C75,43.701,79.701,39,85.5,39L85.5,39z M81,49.5  c0,0.826,0.674,1.5,1.5,1.5s1.5-0.674,1.5-1.5c0-0.923,0.57-1.5,1.5-1.5c0.934,0.021,1.5,0.534,1.5,1.5c0,0.826,0.674,1.5,1.5,1.5  s1.5-0.674,1.5-1.5c0-2.603-1.931-4.5-4.5-4.5C82.93,45,81,46.897,81,49.5L81,49.5z M46.5,78h-18c-0.828,0-1.5,0.672-1.5,1.5  s0.672,1.5,1.5,1.5h18c0.828,0,1.5-0.672,1.5-1.5S47.328,78,46.5,78L46.5,78z M60,69c-3.314,0-6,2.686-6,6s2.686,6,6,6s6-2.686,6-6  S63.314,69,60,69L60,69z M15,69c-3.314,0-6,2.686-6,6s2.686,6,6,6s6-2.686,6-6S18.314,69,15,69L15,69z M25.5,72  c-0.828,0-1.5,0.672-1.5,1.5s0.672,1.5,1.5,1.5h24c0.828,0,1.5-0.672,1.5-1.5S50.328,72,49.5,72H25.5L25.5,72z M62.838,63  l-2.684-8.051c-0.596-1.787-1.863-5.231-3.454-6.424C55.918,47.938,54.932,48,54,48H21c-0.932,0-1.918-0.061-2.7,0.525  c-1.591,1.193-2.858,4.636-3.454,6.424L12.162,63H18h39H62.838z"/></svg>
