<svg xmlns="http://www.w3.org/2000/svg" xmlns:xlink="http://www.w3.org/1999/xlink" version="1.1" x="0px" y="0px" viewBox="0 0 512 640" enable-background="new 0 0 512 512" xml:space="preserve"><g><path d="M124.9,239.6h73.7v-73.7h-73.7V239.6z M141.3,182.3h41v41h-41V182.3z"/><path d="M215,239.6h73.7v-73.7H215V239.6z M231.4,182.3h41v41h-41V182.3z"/><path d="M378.9,165.9h-73.7v73.7h73.7V165.9z M362.5,223.2h-41v-41h41V223.2z"/><path d="M34.8,329.7h73.7V256H34.8V329.7z M51.2,272.4h41v41h-41V272.4z"/><path d="M124.9,329.7h73.7V256h-73.7V329.7z M141.3,272.4h41v41h-41V272.4z"/><path d="M215,329.7h73.7V256H215V329.7z M231.4,272.4h41v41h-41V272.4z"/><rect x="165.9" y="83.9" width="16.4" height="16.4"/><rect x="198.6" y="83.9" width="16.4" height="16.4"/><rect x="231.4" y="83.9" width="16.4" height="16.4"/><path d="M411.7,281.9V43h-65.5V30.7c0-15.8-12.9-28.7-28.7-28.7c-15.8,0-28.7,12.9-28.7,28.7V43H124.9V30.7   C124.9,14.9,112,2,96.2,2S67.5,14.9,67.5,30.7V43H2v327.7h281.3c-1.7,7.9-2.7,16.1-2.7,24.6c0,63.3,51.5,114.7,114.7,114.7   S510,458.5,510,395.3C510,337.6,467.2,289.9,411.7,281.9z M305.2,30.7c0-6.8,5.5-12.3,12.3-12.3c6.8,0,12.3,5.5,12.3,12.3V43v41   h-24.6V43V30.7z M83.9,30.7c0-6.8,5.5-12.3,12.3-12.3c6.8,0,12.3,5.5,12.3,12.3V43v41H83.9V43V30.7z M67.5,59.4v41v0h57.4v0v-41   h163.9v41v0h57.4v0v-41h49.2v65.6H18.4V59.4H67.5z M18.4,354.3v-213h376.9v139.3c-48.8,0-90.5,30.7-107,73.7H18.4z M395.3,493.6   c-54.2,0-98.3-44.1-98.3-98.3s44.1-98.3,98.3-98.3s98.3,44.1,98.3,98.3S449.5,493.6,395.3,493.6z"/><polygon points="403.5,329.7 387.1,329.7 387.1,411.7 444.5,411.7 444.5,395.3 403.5,395.3  "/></g></svg>
