<svg xmlns:dc="http://purl.org/dc/elements/1.1/" xmlns:cc="http://creativecommons.org/ns#" xmlns:rdf="http://www.w3.org/1999/02/22-rdf-syntax-ns#" xmlns:svg="http://www.w3.org/2000/svg" xmlns="http://www.w3.org/2000/svg" xmlns:sodipodi="http://sodipodi.sourceforge.net/DTD/sodipodi-0.dtd" xmlns:inkscape="http://www.inkscape.org/namespaces/inkscape" version="1.1" x="0px" y="0px" viewBox="0 0 94.97966 94.72724"><g transform="translate(-282.67017,-226.61592)"><path style="" d="m 282.74713,302.32431 29.5943,-29.89979 c -5.6902,0.81909 -19.48796,-12.07848 -19.24213,-16.45341 l -10.35586,9.68639" fill="#000000" fill-opacity="1" stroke="#000000" stroke-width="0.21756142px" stroke-linecap="butt" stroke-linejoin="miter" stroke-opacity="1"/><path style="text-indent:0;text-transform:none;direction:ltr;block-progression:tb;baseline-shift:baseline;color:#000000;enable-background:accumulate;" d="m 318.3125,239.75 -0.0937,0.0625 -0.0937,0.0312 0,0.0312 -24.90625,15.84375 -0.0937,0.0625 0.125,0.15625 0.0937,-0.0312 24.875,-15.84375 c 1.24597,3.19734 3.5053,5.30588 7.40625,5.5 l -13.21875,26.65625 -0.0625,0.0937 0.21875,0.0937 0.0312,-0.0937 13.28125,-26.71875 0.0312,0 0,-0.0625 0.0312,-0.0937 -0.0312,0 0,-0.0625 -0.0937,0 -0.0625,-0.0312 0,0.0312 c -3.91961,-0.1584 -6.11258,-2.2265 -7.34375,-5.4375 l -0.0312,-0.0625 -0.0312,-0.125 -0.0312,0 z" fill="#000000" fill-opacity="1" stroke="none" marker="none" visibility="visible" display="inline" overflow="visible"/><path style="" d="m 318.12801,239.99137 14.36187,-8.92389 -6.83235,14.8499 c -3.78524,-0.0884 -6.34694,-2.30543 -7.52952,-5.92601 z" fill="#000000" fill-opacity="1" stroke="#000000" stroke-width="0.21756142px" stroke-linecap="butt" stroke-linejoin="round" stroke-opacity="1"/><path style="text-indent:0;text-transform:none;direction:ltr;block-progression:tb;baseline-shift:baseline;color:#000000;enable-background:accumulate;" d="m 327.59375,264.625 a 0.85614319,0.85614319 0 0 0 -0.75,0.875 l 0,30.90625 a 0.85614319,0.85614319 0 0 0 0.84375,0.875 l 30.9375,0 a 0.85614319,0.85614319 0 0 0 0.84375,-0.875 l 0,-30.90625 a 0.85614319,0.85614319 0 0 0 -0.84375,-0.875 l -30.9375,0 a 0.85614319,0.85614319 0 0 0 -0.0937,0 z m 0.9375,1.71875 29.21875,0 0,29.21875 -29.21875,0 0,-29.21875 z" fill="#000000" fill-opacity="1" stroke="none" marker="none" visibility="visible" display="inline" overflow="visible"/><path style="text-indent:0;text-transform:none;direction:ltr;block-progression:tb;baseline-shift:baseline;color:#000000;enable-background:accumulate;" d="m 376.03125,226.625 a 1.3822202,1.3822202 0 0 0 -0.46875,0.1875 c -11.56114,6.86371 -17.79406,9.9956 -32.03125,23.84375 -1.07652,-2.55356 -2.56167,-5.67526 -6.625,-12.15625 a 1.382967,1.382967 0 1 0 -2.34375,1.46875 c 4.90259,7.8196 6.13879,10.76394 7.21875,13.53125 a 1.3822202,1.3822202 0 0 0 2.25,0.46875 c 15.28745,-15.10075 20.8706,-17.61727 32.9375,-24.78125 a 1.3822202,1.3822202 0 0 0 -0.9375,-2.5625 z" fill="#000000" fill-opacity="1" stroke="none" marker="none" visibility="visible" display="inline" overflow="visible"/><path style="text-indent:0;text-transform:none;direction:ltr;block-progression:tb;baseline-shift:baseline;color:#000000;enable-background:accumulate;" d="M 327.53125,227.15625 A 0.85614319,0.85614319 0 0 0 326.84375,228 l 0,30.90625 a 0.85614319,0.85614319 0 0 0 0.84375,0.875 l 30.9375,0 a 0.85614319,0.85614319 0 0 0 0.84375,-0.875 l 0,-30.90625 a 0.85614319,0.85614319 0 0 0 -0.84375,-0.84375 l -30.9375,0 a 0.85614319,0.85614319 0 0 0 -0.15625,0 z m 1,1.6875 29.21875,0 0,29.21875 -29.21875,0 0,-29.21875 z" fill="#000000" fill-opacity="1" stroke="none" marker="none" visibility="visible" display="inline" overflow="visible"/></g></svg>
