<svg xmlns="http://www.w3.org/2000/svg" xmlns:xlink="http://www.w3.org/1999/xlink" version="1.1" x="0px" y="0px" viewBox="0 0 100 125" style="enable-background:new 0 0 100 100;" xml:space="preserve"><g><path d="M46.4,38.2H28.3c-0.7,0-1.2-0.5-1.2-1.2c0-0.7,0.5-1.2,1.2-1.2h18.1c0.7,0,1.2,0.5,1.2,1.2C47.6,37.7,47.1,38.2,46.4,38.2z   "/></g><g><path d="M53.1,43H28.3c-0.7,0-1.2-0.5-1.2-1.2s0.5-1.2,1.2-1.2h24.9c0.7,0,1.2,0.5,1.2,1.2S53.8,43,53.1,43z"/></g><g><path d="M19,38.6c1.5,0,2.7-1.3,2.7-3c0-1.6-1.3-2.9-2.7-2.9c-1.5,0-2.7,1.3-2.7,3S17.5,38.6,19,38.6"/></g><g><path d="M24.2,42.6v-2.1c0-1.6-1.3-1.9-2.8-1.9c0,0-1,0.8-2.4,0.8c-1.3,0-2.4-0.8-2.4-0.8c-1.5,0-2.8,0.4-2.8,2v2.1   c0,0,2.3,1.2,5.2,1.1C22.4,43.5,24.2,42.6,24.2,42.6z"/></g><g><path d="M19,56.1c1.5,0,2.7-1.3,2.7-3s-1.3-2.9-2.7-2.9c-1.5,0-2.7,1.3-2.7,3C16.3,54.8,17.5,56.1,19,56.1"/></g><g><path d="M24.2,60.1v-2.1c0-1.6-1.3-1.9-2.8-1.9c0,0-1,0.8-2.4,0.8c-1.3,0-2.4-0.8-2.4-0.8c-1.5,0-2.8,0.4-2.8,2v2.1   c0,0,2.3,1.2,5.2,1.1C22.4,61.1,24.2,60.1,24.2,60.1z"/></g><g><path d="M46.4,73.3H28.3c-0.7,0-1.2-0.5-1.2-1.2c0-0.7,0.5-1.2,1.2-1.2h18.1c0.7,0,1.2,0.5,1.2,1.2C47.6,72.8,47.1,73.3,46.4,73.3z   "/></g><g><path d="M53.1,78.1H28.3c-0.7,0-1.2-0.5-1.2-1.2c0-0.7,0.5-1.2,1.2-1.2h24.9c0.7,0,1.2,0.5,1.2,1.2C54.3,77.5,53.8,78.1,53.1,78.1z   "/></g><g><path d="M19,73.7c1.5,0,2.7-1.3,2.7-3s-1.3-2.9-2.7-2.9c-1.5,0-2.7,1.3-2.7,3S17.5,73.7,19,73.7"/></g><g><path d="M24.2,77.7v-2.1c0-1.6-1.3-1.9-2.8-1.9c0,0-1,0.8-2.4,0.8c-1.3,0-2.4-0.8-2.4-0.8c-1.5,0-2.8,0.4-2.8,2v2.1   c0,0,2.3,1.2,5.2,1.1C22.4,78.6,24.2,77.7,24.2,77.7z"/></g><path d="M28.3,55.8h18.1c0.7,0,1.2-0.5,1.2-1.2s-0.5-1.2-1.2-1.2H28.3c-0.7,0-1.2,0.5-1.2,1.2S27.6,55.8,28.3,55.8z"/><path d="M94.6,18.6L88,12.7c-0.2-0.2-0.5-0.3-0.9-0.3c-0.3,0-0.6,0.2-0.8,0.4l-1.5,1.6c-0.4,0.5-0.4,1.2,0.1,1.7l6.6,5.9  c0.2,0.2,0.5,0.3,0.8,0.3c0,0,0,0,0.1,0c0.3,0,0.6-0.2,0.8-0.4l1.5-1.6C95.1,19.8,95.1,19,94.6,18.6z"/><path d="M90.5,23.2l-6.6-5.9c-0.5-0.4-1.2-0.4-1.7,0.1L61.9,40V20.2c0-3.3-2.7-6-6-6H39.3c-0.8-0.5-1.8-1.2-2.2-2.1  c-0.9-2.2-2-3.1-3.6-3.1c-1.6,0-2.7,0.9-3.7,3.1c-0.4,1-1.4,1.7-2.2,2.1H11c-3.3,0-6,2.7-6,6v64.9c0,3.3,2.7,6,6,6h44.8  c3.3,0,6-2.7,6-6V56.8l28.7-31.9c0.2-0.2,0.3-0.5,0.3-0.9C90.8,23.7,90.7,23.4,90.5,23.2z M33.4,10.5c0.9,0,1.6,0.7,1.6,1.6  c0,0.9-0.7,1.6-1.6,1.6c-0.9,0-1.6-0.7-1.6-1.6C31.8,11.2,32.5,10.5,33.4,10.5z M58.4,85.1c0,1.4-1.2,2.6-2.6,2.6H11  c-1.4,0-2.6-1.2-2.6-2.6V20.2c0-1.4,1.2-2.6,2.6-2.6h15v2.6c-2.8,0.1-5.6,0.3-6.7,0.7c-2.7,0.8-3,4.7-3,4.9c0,0.1,0,0.1,0.1,0.2  c0,0,0.1,0.1,0.2,0.1h33.7c0.1,0,0.1,0,0.2-0.1c0,0,0.1-0.1,0.1-0.2c0-0.2-0.2-4-3-4.9c-1.1-0.3-3.9-0.5-6.7-0.7v-2.6h15  c1.4,0,2.6,1.2,2.6,2.6v23.7L50.2,53c-0.1,0.1-0.2,0.3-0.3,0.5l-1.1,4.6H28.3c-0.7,0-1.2,0.5-1.2,1.2s0.5,1.2,1.2,1.2h20l-0.5,2  c-0.1,0.4,0,0.9,0.4,1.1c0.2,0.2,0.5,0.3,0.8,0.3c0.1,0,0.3,0,0.4-0.1l8.7-3c0.2-0.1,0.3-0.1,0.4-0.3V85.1z M84,23.3L56.4,54.1  c-0.2,0.3-0.6,0.4-0.9,0.4c-0.3,0-0.6-0.1-0.8-0.3c-0.5-0.4-0.5-1.2-0.1-1.7l27.7-30.8c0.4-0.5,1.2-0.5,1.7-0.1  C84.4,22.1,84.5,22.8,84,23.3z"/></svg>
